<mxfile host="Electron" modified="2024-01-19T15:34:45.771Z" agent="Mozilla/5.0 (Windows NT 10.0; Win64; x64) AppleWebKit/537.36 (KHTML, like Gecko) draw.io/21.2.8 Chrome/112.0.5615.165 Electron/24.2.0 Safari/537.36" etag="j4gXpZggclolX8SzkioZ" version="21.2.8" type="device">
  <diagram name="Seite-1" id="cQQjCb1Iv1z3uqzW7oXG">
    <mxGraphModel dx="1010" dy="497" grid="1" gridSize="10" guides="1" tooltips="1" connect="1" arrows="1" fold="1" page="1" pageScale="1" pageWidth="827" pageHeight="1169" math="0" shadow="0">
      <root>
        <mxCell id="0" />
        <mxCell id="1" parent="0" />
        <mxCell id="-nkASyPTGV0E5Ga4brWv-3" value="COMMENTS" style="swimlane;childLayout=stackLayout;horizontal=1;startSize=50;horizontalStack=0;rounded=1;fontSize=14;fontStyle=0;strokeWidth=2;resizeParent=0;resizeLast=1;shadow=0;dashed=0;align=center;arcSize=4;whiteSpace=wrap;html=1;" parent="1" vertex="1">
          <mxGeometry x="100" y="590" width="160" height="150" as="geometry" />
        </mxCell>
        <mxCell id="-nkASyPTGV0E5Ga4brWv-4" value="#commentID&lt;br&gt;- commentText&lt;br&gt;- datePosted&lt;br&gt;- userID&lt;br&gt;- postID&lt;br&gt;#mainCommentID" style="align=left;strokeColor=none;fillColor=none;spacingLeft=4;fontSize=12;verticalAlign=top;resizable=0;rotatable=0;part=1;html=1;" parent="-nkASyPTGV0E5Ga4brWv-3" vertex="1">
          <mxGeometry y="50" width="160" height="100" as="geometry" />
        </mxCell>
        <mxCell id="dyEpZngmWZeYUMMWwdDO-8" style="edgeStyle=orthogonalEdgeStyle;rounded=0;orthogonalLoop=1;jettySize=auto;html=1;exitX=1;exitY=0.25;exitDx=0;exitDy=0;entryX=1;entryY=0.75;entryDx=0;entryDy=0;startArrow=ERmandOne;startFill=0;endArrow=ERzeroToMany;endFill=0;" parent="-nkASyPTGV0E5Ga4brWv-3" source="-nkASyPTGV0E5Ga4brWv-3" target="-nkASyPTGV0E5Ga4brWv-4" edge="1">
          <mxGeometry relative="1" as="geometry">
            <Array as="points">
              <mxPoint x="200" y="38" />
              <mxPoint x="200" y="125" />
            </Array>
          </mxGeometry>
        </mxCell>
        <mxCell id="-nkASyPTGV0E5Ga4brWv-5" value="USER" style="swimlane;childLayout=stackLayout;horizontal=1;startSize=50;horizontalStack=0;rounded=1;fontSize=14;fontStyle=0;strokeWidth=2;resizeParent=0;resizeLast=1;shadow=0;dashed=0;align=center;arcSize=4;whiteSpace=wrap;html=1;" parent="1" vertex="1">
          <mxGeometry x="100" y="150" width="160" height="150" as="geometry" />
        </mxCell>
        <mxCell id="-nkASyPTGV0E5Ga4brWv-6" value="#userID&lt;br&gt;#username&lt;br&gt;#mail&lt;br&gt;- password&lt;br&gt;- registrationDate&lt;br&gt;- role" style="align=left;strokeColor=none;fillColor=none;spacingLeft=4;fontSize=12;verticalAlign=top;resizable=0;rotatable=0;part=1;html=1;" parent="-nkASyPTGV0E5Ga4brWv-5" vertex="1">
          <mxGeometry y="50" width="160" height="100" as="geometry" />
        </mxCell>
        <mxCell id="-nkASyPTGV0E5Ga4brWv-7" value="GAMES" style="swimlane;childLayout=stackLayout;horizontal=1;startSize=50;horizontalStack=0;rounded=1;fontSize=14;fontStyle=0;strokeWidth=2;resizeParent=0;resizeLast=1;shadow=0;dashed=0;align=center;arcSize=4;whiteSpace=wrap;html=1;" parent="1" vertex="1">
          <mxGeometry x="370" y="140" width="160" height="180" as="geometry" />
        </mxCell>
        <mxCell id="-nkASyPTGV0E5Ga4brWv-8" value="#gameD&lt;br&gt;- title&lt;br&gt;- description&lt;br&gt;- releaseDate&lt;br&gt;#developerID&lt;br&gt;- genre&lt;br&gt;- averageRating&lt;br&gt;- imagePath" style="align=left;strokeColor=none;fillColor=none;spacingLeft=4;fontSize=12;verticalAlign=top;resizable=0;rotatable=0;part=1;html=1;" parent="-nkASyPTGV0E5Ga4brWv-7" vertex="1">
          <mxGeometry y="50" width="160" height="130" as="geometry" />
        </mxCell>
        <mxCell id="-nkASyPTGV0E5Ga4brWv-9" value="POSTS" style="swimlane;childLayout=stackLayout;horizontal=1;startSize=50;horizontalStack=0;rounded=1;fontSize=14;fontStyle=0;strokeWidth=2;resizeParent=0;resizeLast=1;shadow=0;dashed=0;align=center;arcSize=4;whiteSpace=wrap;html=1;" parent="1" vertex="1">
          <mxGeometry x="100" y="360" width="160" height="150" as="geometry" />
        </mxCell>
        <mxCell id="-nkASyPTGV0E5Ga4brWv-10" value="#postID&lt;br&gt;- postReference&lt;br&gt;- postText&lt;br&gt;- datePosted&lt;br&gt;- userID&lt;br&gt;- gameID" style="align=left;strokeColor=none;fillColor=none;spacingLeft=4;fontSize=12;verticalAlign=top;resizable=0;rotatable=0;part=1;html=1;" parent="-nkASyPTGV0E5Ga4brWv-9" vertex="1">
          <mxGeometry y="50" width="160" height="100" as="geometry" />
        </mxCell>
        <mxCell id="-nkASyPTGV0E5Ga4brWv-16" style="edgeStyle=orthogonalEdgeStyle;rounded=0;orthogonalLoop=1;jettySize=auto;html=1;exitX=0.5;exitY=1;exitDx=0;exitDy=0;endArrow=ERzeroToMany;endFill=0;startArrow=ERmandOne;startFill=0;" parent="1" source="-nkASyPTGV0E5Ga4brWv-6" target="-nkASyPTGV0E5Ga4brWv-9" edge="1">
          <mxGeometry relative="1" as="geometry" />
        </mxCell>
        <mxCell id="-nkASyPTGV0E5Ga4brWv-17" style="edgeStyle=orthogonalEdgeStyle;rounded=0;orthogonalLoop=1;jettySize=auto;html=1;exitX=0.5;exitY=1;exitDx=0;exitDy=0;entryX=0.5;entryY=0;entryDx=0;entryDy=0;endArrow=ERzeroToMany;endFill=0;startArrow=ERmandOne;startFill=0;" parent="1" source="-nkASyPTGV0E5Ga4brWv-10" target="-nkASyPTGV0E5Ga4brWv-3" edge="1">
          <mxGeometry relative="1" as="geometry" />
        </mxCell>
        <mxCell id="WfKCJ2HYoeteQ8HylRNs-2" style="edgeStyle=orthogonalEdgeStyle;rounded=0;orthogonalLoop=1;jettySize=auto;html=1;exitX=0.5;exitY=0;exitDx=0;exitDy=0;entryX=0.5;entryY=0;entryDx=0;entryDy=0;endArrow=ERmandOne;endFill=0;startArrow=ERzeroToMany;startFill=0;" parent="1" source="-nkASyPTGV0E5Ga4brWv-18" target="-nkASyPTGV0E5Ga4brWv-5" edge="1">
          <mxGeometry relative="1" as="geometry">
            <Array as="points">
              <mxPoint x="700" y="110" />
              <mxPoint x="180" y="110" />
            </Array>
          </mxGeometry>
        </mxCell>
        <mxCell id="-nkASyPTGV0E5Ga4brWv-18" value="REVIEWS" style="swimlane;childLayout=stackLayout;horizontal=1;startSize=50;horizontalStack=0;rounded=1;fontSize=14;fontStyle=0;strokeWidth=2;resizeParent=0;resizeLast=1;shadow=0;dashed=0;align=center;arcSize=4;whiteSpace=wrap;html=1;" parent="1" vertex="1">
          <mxGeometry x="620" y="165" width="160" height="120" as="geometry" />
        </mxCell>
        <mxCell id="-nkASyPTGV0E5Ga4brWv-19" value="#reviewID&lt;br&gt;#userID&lt;br&gt;#gameID&lt;br&gt;- review" style="align=left;strokeColor=none;fillColor=none;spacingLeft=4;fontSize=12;verticalAlign=top;resizable=0;rotatable=0;part=1;html=1;" parent="-nkASyPTGV0E5Ga4brWv-18" vertex="1">
          <mxGeometry y="50" width="160" height="70" as="geometry" />
        </mxCell>
        <mxCell id="-nkASyPTGV0E5Ga4brWv-20" style="edgeStyle=orthogonalEdgeStyle;rounded=0;orthogonalLoop=1;jettySize=auto;html=1;exitX=1.003;exitY=0.284;exitDx=0;exitDy=0;endArrow=ERzeroToMany;endFill=0;exitPerimeter=0;startArrow=ERmandOne;startFill=0;entryX=0.013;entryY=0.181;entryDx=0;entryDy=0;entryPerimeter=0;" parent="1" source="-nkASyPTGV0E5Ga4brWv-8" edge="1" target="-nkASyPTGV0E5Ga4brWv-19">
          <mxGeometry relative="1" as="geometry">
            <mxPoint x="620" y="216" as="targetPoint" />
          </mxGeometry>
        </mxCell>
        <mxCell id="dyEpZngmWZeYUMMWwdDO-5" value="DEVELOPER" style="swimlane;childLayout=stackLayout;horizontal=1;startSize=50;horizontalStack=0;rounded=1;fontSize=14;fontStyle=0;strokeWidth=2;resizeParent=0;resizeLast=1;shadow=0;dashed=0;align=center;arcSize=4;whiteSpace=wrap;html=1;" parent="1" vertex="1">
          <mxGeometry x="370" y="360" width="160" height="120" as="geometry" />
        </mxCell>
        <mxCell id="dyEpZngmWZeYUMMWwdDO-6" value="#developerID&lt;br&gt;- developerName" style="align=left;strokeColor=none;fillColor=none;spacingLeft=4;fontSize=12;verticalAlign=top;resizable=0;rotatable=0;part=1;html=1;" parent="dyEpZngmWZeYUMMWwdDO-5" vertex="1">
          <mxGeometry y="50" width="160" height="70" as="geometry" />
        </mxCell>
        <mxCell id="dyEpZngmWZeYUMMWwdDO-7" style="edgeStyle=orthogonalEdgeStyle;rounded=0;orthogonalLoop=1;jettySize=auto;html=1;exitX=0.5;exitY=1;exitDx=0;exitDy=0;entryX=0.5;entryY=0;entryDx=0;entryDy=0;startArrow=ERoneToMany;startFill=0;endArrow=ERmandOne;endFill=0;" parent="1" source="-nkASyPTGV0E5Ga4brWv-8" target="dyEpZngmWZeYUMMWwdDO-5" edge="1">
          <mxGeometry relative="1" as="geometry" />
        </mxCell>
        <mxCell id="8IKhk43OQQ5P-lRG8Tb--5" value="QUESTIONS" style="swimlane;childLayout=stackLayout;horizontal=1;startSize=50;horizontalStack=0;rounded=1;fontSize=14;fontStyle=0;strokeWidth=2;resizeParent=0;resizeLast=1;shadow=0;dashed=0;align=center;arcSize=4;whiteSpace=wrap;html=1;" parent="1" vertex="1">
          <mxGeometry x="610" y="580" width="160" height="120" as="geometry" />
        </mxCell>
        <mxCell id="8IKhk43OQQ5P-lRG8Tb--6" value="#questionID&lt;br&gt;- title&lt;br&gt;- text&lt;br&gt;- answer" style="align=left;strokeColor=none;fillColor=none;spacingLeft=4;fontSize=12;verticalAlign=top;resizable=0;rotatable=0;part=1;html=1;" parent="8IKhk43OQQ5P-lRG8Tb--5" vertex="1">
          <mxGeometry y="50" width="160" height="70" as="geometry" />
        </mxCell>
        <mxCell id="0loGqY6xWruEhJ5AObeZ-1" value="FEEDBACK" style="swimlane;childLayout=stackLayout;horizontal=1;startSize=50;horizontalStack=0;rounded=1;fontSize=14;fontStyle=0;strokeWidth=2;resizeParent=0;resizeLast=1;shadow=0;dashed=0;align=center;arcSize=4;whiteSpace=wrap;html=1;" vertex="1" parent="1">
          <mxGeometry x="610" y="390" width="160" height="150" as="geometry" />
        </mxCell>
        <mxCell id="0loGqY6xWruEhJ5AObeZ-2" value="#feedbackID&lt;br&gt;- name&lt;br&gt;- mail&lt;br&gt;- improvement&lt;br&gt;- technicalImprovement&lt;br&gt;- functions" style="align=left;strokeColor=none;fillColor=none;spacingLeft=4;fontSize=12;verticalAlign=top;resizable=0;rotatable=0;part=1;html=1;" vertex="1" parent="0loGqY6xWruEhJ5AObeZ-1">
          <mxGeometry y="50" width="160" height="100" as="geometry" />
        </mxCell>
      </root>
    </mxGraphModel>
  </diagram>
</mxfile>
